<svg width="38" height="57" viewBox="0 0 38 57" fill="none" xmlns="http://www.w3.org/2000/svg">
<g clip-path="url(#clip0)">
<path d="M9.50188 57C14.7448 57 19 52.744 19 47.5V38H9.50188C4.25893 38 0.00378418 42.256 0.00378418 47.5C0.00378418 52.744 4.25893 57 9.50188 57Z" fill="#B6B6B6"/>
<path d="M0.00378418 28.5C0.00378418 23.256 4.25893 19 9.50188 19H19V38H9.50188C4.25893 38 0.00378418 33.744 0.00378418 28.5Z" fill="#B6B6B6"/>
<path d="M0.00469971 9.5C0.00469971 4.256 4.25985 0 9.5028 0H19.0009V19H9.5028C4.25985 19 0.00469971 14.744 0.00469971 9.5Z" fill="#B6B6B6"/>
<path d="M19 0H28.4981C33.7411 0 37.9962 4.256 37.9962 9.5C37.9962 14.744 33.7411 19 28.4981 19H19V0Z" fill="#B6B6B6"/>
<path d="M37.9962 28.5C37.9962 33.744 33.7411 38 28.4981 38C23.2551 38 19 33.744 19 28.5C19 23.256 23.2551 19 28.4981 19C33.7411 19 37.9962 23.256 37.9962 28.5Z" fill="#B6B6B6"/>
</g>
<defs>
<clipPath id="clip0">
<rect width="38" height="57" fill="white"/>
</clipPath>
</defs>
</svg>
