<svg width="62" height="62" viewBox="0 0 62 62" fill="none" xmlns="http://www.w3.org/2000/svg">
<path d="M31 0C13.8828 0 0 13.8802 0 31C0 44.6968 8.8815 56.3167 21.2014 60.4164C22.7488 60.7032 23.25 59.7422 23.25 58.9258V53.1547C14.6268 55.0302 12.8314 49.4967 12.8314 49.4967C11.4209 45.9136 9.38783 44.9603 9.38783 44.9603C6.57458 43.0357 9.60225 43.0771 9.60225 43.0771C12.7152 43.2941 14.353 46.2727 14.353 46.2727C17.1172 51.0105 21.6044 49.6413 23.374 48.8483C23.6504 46.8462 24.4538 45.477 25.3425 44.7046C18.4579 43.9167 11.2194 41.2584 11.2194 29.3828C11.2194 25.9961 12.431 23.2319 14.4124 21.0619C14.0921 20.2792 13.0303 17.1249 14.7147 12.8573C14.7147 12.8573 17.3187 12.0254 23.2422 16.0347C25.7145 15.3476 28.365 15.004 31 14.9911C33.635 15.004 36.2881 15.3476 38.7655 16.0347C44.6839 12.0254 47.2827 12.8573 47.2827 12.8573C48.9697 17.1275 47.9079 20.2817 47.5876 21.0619C49.5767 23.2319 50.778 25.9987 50.778 29.3828C50.778 41.2894 43.5266 43.9115 36.6239 44.6787C37.7347 45.6397 38.75 47.5256 38.75 50.4189V58.9258C38.75 59.7499 39.246 60.7187 40.8192 60.4138C53.1288 56.3089 62 44.6917 62 31C62 13.8802 48.1197 0 31 0Z" fill="#B6B6B6"/>
</svg>
