<svg width="60" height="60" viewBox="0 0 60 60" fill="none" xmlns="http://www.w3.org/2000/svg">
<path d="M6.46381 44.1539L8.62015 45.3989L32.6426 3.79195L30.4863 2.54695L6.46381 44.1539Z" fill="#B6B6B6"/>
<path d="M54.015 40.83H5.97002V43.32H54.015V40.83Z" fill="#B6B6B6"/>
<path d="M6.92069 42.2289L30.9522 56.1039L32.1972 53.9475L8.16569 40.0725L6.92069 42.2289Z" fill="#B6B6B6"/>
<path d="M27.7968 6.06701L51.8283 19.942L53.0733 17.7857L29.0418 3.91067L27.7968 6.06701Z" fill="#B6B6B6"/>
<path d="M6.92735 17.7762L8.17235 19.9325L32.2038 6.0575L30.9588 3.90116L6.92735 17.7762Z" fill="#B6B6B6"/>
<path d="M27.3627 3.79244L51.3852 45.3994L53.5416 44.1544L29.5191 2.54744L27.3627 3.79244Z" fill="#B6B6B6"/>
<path d="M10.365 16.125H7.875V43.875H10.365V16.125Z" fill="#B6B6B6"/>
<path d="M52.125 16.125H49.635V43.875H52.125V16.125Z" fill="#B6B6B6"/>
<path d="M29.4408 53.1664L30.5283 55.0499L51.4292 42.9824L50.3417 41.0989L29.4408 53.1664Z" fill="#B6B6B6"/>
<path d="M55.425 44.6849C53.985 47.1899 50.775 48.0449 48.27 46.6049C45.765 45.1649 44.91 41.9549 46.35 39.4499C47.79 36.9449 51 36.0899 53.505 37.5299C56.025 38.9849 56.88 42.1799 55.425 44.6849Z" fill="#B6B6B6"/>
<path d="M13.635 20.5501C12.195 23.0551 8.985 23.9101 6.48 22.4701C3.975 21.0301 3.12 17.8201 4.56 15.3151C6 12.8101 9.21 11.9551 11.715 13.3951C14.22 14.8501 15.075 18.0451 13.635 20.5501Z" fill="#B6B6B6"/>
<path d="M4.575 44.6849C3.135 42.1799 3.99 38.9849 6.495 37.5299C9 36.0899 12.195 36.9449 13.65 39.4499C15.09 41.9549 14.235 45.1499 11.73 46.6049C9.21 48.0449 6.015 47.1899 4.575 44.6849Z" fill="#B6B6B6"/>
<path d="M46.365 20.5501C44.925 18.0451 45.78 14.8501 48.285 13.3951C50.79 11.9551 53.985 12.8101 55.44 15.3151C56.88 17.8201 56.025 21.0151 53.52 22.4701C51.015 23.9101 47.805 23.0551 46.365 20.5501Z" fill="#B6B6B6"/>
<path d="M30 59.37C27.105 59.37 24.765 57.03 24.765 54.135C24.765 51.24 27.105 48.9 30 48.9C32.895 48.9 35.235 51.24 35.235 54.135C35.235 57.015 32.895 59.37 30 59.37Z" fill="#B6B6B6"/>
<path d="M30 11.1C27.105 11.1 24.765 8.76 24.765 5.865C24.765 2.97 27.105 0.630005 30 0.630005C32.895 0.630005 35.235 2.97 35.235 5.865C35.235 8.76 32.895 11.1 30 11.1Z" fill="#B6B6B6"/>
</svg>
