<svg width="75" height="78" viewBox="0 0 75 78" fill="none" xmlns="http://www.w3.org/2000/svg">
<path fill-rule="evenodd" clip-rule="evenodd" d="M74.439 17.3459C74.4666 17.4482 74.4807 17.5535 74.481 17.6594V34.1174C74.481 34.3287 74.4252 34.5362 74.3194 34.719C74.2135 34.9017 74.0612 35.0533 73.878 35.1584L60.0645 43.1114V58.8749C60.0645 59.3039 59.8365 59.6999 59.4645 59.9159L30.63 76.5149C30.564 76.5524 30.492 76.5764 30.42 76.6019C30.393 76.6109 30.3675 76.6274 30.339 76.6349C30.1374 76.688 29.9256 76.688 29.724 76.6349C29.691 76.6259 29.661 76.6079 29.6295 76.5959C29.5635 76.5719 29.4945 76.5509 29.4315 76.5149L0.603 59.9159C0.419861 59.8107 0.267691 59.6591 0.161827 59.4763C0.0559626 59.2936 0.000145109 59.0861 0 58.8749L0 9.50093C0 9.39293 0.015 9.28793 0.042 9.18593C0.051 9.15143 0.072 9.11993 0.084 9.08543C0.1065 9.02243 0.1275 8.95793 0.1605 8.89943C0.183 8.86043 0.216 8.82893 0.243 8.79293C0.2775 8.74493 0.309 8.69543 0.3495 8.65343C0.384 8.61893 0.429 8.59343 0.468 8.56343C0.5115 8.52743 0.5505 8.48843 0.6 8.45993H0.6015L15.0165 0.160429C15.199 0.0553997 15.4059 0.00012207 15.6165 0.00012207C15.8271 0.00012207 16.034 0.0553997 16.2165 0.160429L30.6315 8.45993H30.6345C30.6825 8.48993 30.723 8.52743 30.7665 8.56193C30.8055 8.59193 30.849 8.61893 30.8835 8.65193C30.9255 8.69543 30.9555 8.74493 30.9915 8.79293C31.017 8.82893 31.0515 8.86043 31.0725 8.89943C31.107 8.95943 31.1265 9.02243 31.1505 9.08543C31.1625 9.11993 31.1835 9.15143 31.1925 9.18743C31.2201 9.28965 31.2342 9.39505 31.2345 9.50093V40.3394L43.2465 33.4229V17.6579C43.2465 17.5529 43.2615 17.4464 43.2885 17.3459C43.299 17.3099 43.3185 17.2784 43.3305 17.2439C43.3545 17.1809 43.3755 17.1164 43.4085 17.0579C43.431 17.0189 43.464 16.9874 43.4895 16.9514C43.5255 16.9034 43.5555 16.8539 43.5975 16.8119C43.632 16.7774 43.6755 16.7519 43.7145 16.7219C43.7595 16.6859 43.7985 16.6469 43.8465 16.6184H43.848L58.2645 8.31893C58.447 8.21375 58.6539 8.15839 58.8645 8.15839C59.0751 8.15839 59.282 8.21375 59.4645 8.31893L73.8795 16.6184C73.9305 16.6484 73.9695 16.6859 74.0145 16.7204C74.052 16.7504 74.0955 16.7774 74.13 16.8104C74.172 16.8539 74.202 16.9034 74.238 16.9514C74.265 16.9874 74.298 17.0189 74.319 17.0579C74.3535 17.1164 74.373 17.1809 74.397 17.2439C74.4105 17.2784 74.43 17.3099 74.439 17.3459ZM72.078 33.4229V19.7369L67.0335 22.6409L60.0645 26.6534V40.3394L72.0795 33.4229H72.078ZM57.663 58.1804V44.4854L50.808 48.4004L31.233 59.5724V73.3964L57.663 58.1804ZM2.403 11.5784V58.1804L28.83 73.3949V59.5739L15.024 51.7604L15.0195 51.7574L15.0135 51.7544C14.967 51.7274 14.928 51.6884 14.8845 51.6554C14.847 51.6254 14.8035 51.6014 14.7705 51.5684L14.7675 51.5639C14.7285 51.5264 14.7015 51.4799 14.6685 51.4379C14.6385 51.3974 14.6025 51.3629 14.5785 51.3209L14.577 51.3164C14.55 51.2714 14.5335 51.2174 14.514 51.1664C14.4945 51.1214 14.469 51.0794 14.457 51.0314V51.0299C14.442 50.9729 14.439 50.9129 14.433 50.8544C14.427 50.8094 14.415 50.7644 14.415 50.7194V50.7164V18.4949L7.4475 14.4809L2.403 11.5799V11.5784ZM15.618 2.58743L3.6075 9.50093L15.615 16.4144L27.624 9.49943L15.615 2.58743H15.618ZM21.864 45.7334L28.8315 41.7224V11.5784L23.787 14.4824L16.818 18.4949V48.6389L21.864 45.7334ZM58.8645 10.7459L46.8555 17.6594L58.8645 24.5729L70.872 17.6579L58.8645 10.7459ZM57.663 26.6534L50.694 22.6409L45.6495 19.7369V33.4229L52.617 37.4339L57.663 40.3394V26.6534ZM30.03 57.4949L47.6445 47.4389L56.4495 42.4139L44.4495 35.5049L30.633 43.4594L18.0405 50.7089L30.03 57.4949Z" fill="#B6B6B6"/>
</svg>
