<svg width="31" height="31" viewBox="0 0 31 31" fill="none" xmlns="http://www.w3.org/2000/svg">
<g clip-path="url(#clip0)">
<path fill-rule="evenodd" clip-rule="evenodd" d="M15.5047 0C24.0615 0 31.0093 6.93849 31.0093 15.5047C31.0093 24.0615 24.0708 31.0093 15.5047 31.0093C6.94779 31.0093 0 24.0708 0 15.5047C0 6.94779 6.93849 0 15.5047 0ZM13.505 12.426H16.6859V14.0537H16.7324C17.1788 13.2538 18.2577 12.426 19.8761 12.426C23.2337 12.426 23.8569 14.5188 23.8569 17.2346V22.778H20.5365V17.8671C20.5365 16.6952 20.5086 15.1884 18.8065 15.1884C17.0765 15.1884 16.8161 16.4626 16.8161 17.7834V22.778H13.4957V12.426H13.505ZM11.2076 9.55206C11.2076 10.5008 10.4356 11.282 9.47765 11.282C8.52895 11.282 7.74767 10.5101 7.74767 9.55206C7.74767 8.60336 8.51965 7.82208 9.47765 7.82208C10.4263 7.82208 11.2076 8.59406 11.2076 9.55206ZM7.75698 12.426H11.2076V22.778H7.75698V12.426Z" fill="url(#paint0_linear)"/>
</g>
<defs>
<linearGradient id="paint0_linear" x1="15.5047" y1="0" x2="15.5047" y2="31.0093" gradientUnits="userSpaceOnUse">
<stop stop-color="#FF4343"/>
<stop offset="1" stop-color="#FF2D2D"/>
</linearGradient>
<clipPath id="clip0">
<rect width="31" height="31" fill="white"/>
</clipPath>
</defs>
</svg>
