<svg width="29" height="47" viewBox="0 0 29 47" fill="none" xmlns="http://www.w3.org/2000/svg">
<path d="M13.005 13.22C17.555 13.22 20.9617 14.2583 23.225 16.335C25.4883 18.3883 26.62 21.3867 26.62 25.33C26.62 27.8733 26.06 30.1017 24.94 32.015C23.8433 33.905 22.245 35.375 20.145 36.425C18.0683 37.475 15.5833 38 12.69 38L10.52 37.965C9.16667 37.9183 8.18667 37.895 7.58 37.895C5.17667 37.895 3.38 37.93 2.19 38V37.3C2.96 37.2533 3.52 37.16 3.87 37.02C4.24333 36.88 4.48833 36.6117 4.605 36.215C4.745 35.8183 4.815 35.1767 4.815 34.29V16.93C4.815 16.0433 4.745 15.4017 4.605 15.005C4.48833 14.6083 4.24333 14.34 3.87 14.2C3.52 14.06 2.96 13.9667 2.19 13.92V13.22C3.17 13.29 4.58167 13.325 6.425 13.325H7.51L8.91 13.29C10.8233 13.2433 12.1883 13.22 13.005 13.22ZM12.97 13.85C12.2467 13.85 11.6983 13.9317 11.325 14.095C10.975 14.2583 10.73 14.55 10.59 14.97C10.45 15.39 10.38 16.02 10.38 16.86V34.36C10.38 35.2 10.45 35.83 10.59 36.25C10.73 36.67 10.975 36.9617 11.325 37.125C11.6983 37.2883 12.2583 37.37 13.005 37.37C15.8283 37.37 17.835 36.39 19.025 34.43C20.215 32.4467 20.81 29.46 20.81 25.47C20.81 21.48 20.1917 18.5517 18.955 16.685C17.7417 14.795 15.7467 13.85 12.97 13.85Z" fill="black"/>
<path d="M0.195 43.88C1.175 43.7867 1.98 43.495 2.61 43.005C3.26333 42.5383 3.75333 41.745 4.08 40.625C4.43 39.5283 4.605 38.0233 4.605 36.11V16.93C4.605 16.0433 4.535 15.4017 4.395 15.005C4.27833 14.6083 4.03333 14.34 3.66 14.2C3.31 14.06 2.75 13.9667 1.98 13.92V13.22C3.14667 13.29 4.90833 13.325 7.265 13.325C9.66833 13.325 11.5117 13.29 12.795 13.22V13.92C12.0017 13.9667 11.43 14.06 11.08 14.2C10.73 14.34 10.485 14.6083 10.345 15.005C10.2283 15.4017 10.17 16.0433 10.17 16.93V29.74V31.875C10.17 35.165 9.97167 37.4983 9.575 38.875C9.085 40.5783 8.035 41.955 6.425 43.005C4.83833 44.055 2.76167 44.58 0.195 44.58V43.88Z" fill="black"/>
</svg>
