<svg width="13" height="20" viewBox="0 0 13 20" fill="none" xmlns="http://www.w3.org/2000/svg">
<path d="M1.63324 0.226043C1.20579 -0.123685 0.57577 -0.0606827 0.226043 0.366762C-0.123685 0.794207 -0.0606827 1.42423 0.366762 1.77396L1.63324 0.226043ZM12 10L12.6332 10.774C12.8654 10.584 13 10.2999 13 10C13 9.70007 12.8654 9.41597 12.6332 9.22604L12 10ZM0.366762 18.226C-0.0606827 18.5758 -0.123685 19.2058 0.226043 19.6332C0.57577 20.0607 1.20579 20.1237 1.63324 19.774L0.366762 18.226ZM0.366762 1.77396L11.3668 10.774L12.6332 9.22604L1.63324 0.226043L0.366762 1.77396ZM11.3668 9.22604L0.366762 18.226L1.63324 19.774L12.6332 10.774L11.3668 9.22604Z" fill="url(#paint0_linear)"/>
<defs>
<linearGradient id="paint0_linear" x1="6.5" y1="1" x2="6.5" y2="19" gradientUnits="userSpaceOnUse">
<stop stop-color="#FF4343"/>
<stop offset="1" stop-color="#FF2D2D"/>
</linearGradient>
</defs>
</svg>
