<svg width="69" height="78" viewBox="0 0 69 78" fill="none" xmlns="http://www.w3.org/2000/svg">
<path d="M34.5 77.8553C33.4286 77.8553 32.4286 77.5692 31.5 77.0685L22 71.418C20.5714 70.6312 21.2857 70.3451 21.7143 70.2021C23.6429 69.5583 24 69.4153 26 68.2709C26.2143 68.1278 26.5 68.1994 26.7143 68.3424L34 72.7055C34.2857 72.8485 34.6429 72.8485 34.8571 72.7055L63.3571 56.1831C63.6429 56.0401 63.7857 55.754 63.7857 55.3963V22.4232C63.7857 22.0656 63.6429 21.7795 63.3571 21.6364L34.8571 5.18558C34.5714 5.04253 34.2143 5.04253 34 5.18558L5.5 21.6364C5.21429 21.7795 5.07143 22.1371 5.07143 22.4232V55.3963C5.07143 55.6824 5.21429 56.0401 5.5 56.1831L13.2857 60.6892C17.5 62.835 20.1429 60.3316 20.1429 57.8282V25.2842C20.1429 24.855 20.5 24.4259 21 24.4259H24.6429C25.0714 24.4259 25.5 24.7835 25.5 25.2842V57.8282C25.5 63.4787 22.4286 66.7689 17.0714 66.7689C15.4286 66.7689 14.1429 66.7689 10.5 64.9807L3 60.6892C1.14286 59.6163 0 57.6136 0 55.4679V22.4947C0 20.3489 1.14286 18.3462 3 17.2734L31.5 0.751015C33.2857 -0.250338 35.7143 -0.250338 37.5 0.751015L66 17.2734C67.8571 18.3462 69 20.3489 69 22.4947V55.4679C69 57.6136 67.8571 59.6163 66 60.6892L37.5 77.2115C36.5714 77.6407 35.5 77.8553 34.5 77.8553ZM43.2857 55.1818C30.7857 55.1818 28.2143 49.4597 28.2143 44.596C28.2143 44.1669 28.5714 43.7377 29.0714 43.7377H32.7857C33.2143 43.7377 33.5714 44.0238 33.5714 44.453C34.1429 48.2438 35.7857 50.1035 43.3571 50.1035C49.3571 50.1035 51.9286 48.7445 51.9286 45.5258C51.9286 43.6662 51.2143 42.3072 41.8571 41.3774C34.0714 40.5906 29.2143 38.874 29.2143 32.6513C29.2143 26.8577 34.0714 23.4245 42.2143 23.4245C51.3571 23.4245 55.8571 26.5716 56.4286 33.4381C56.4286 33.6526 56.3571 33.8672 56.2143 34.0818C56.0714 34.2248 55.8571 34.3679 55.6429 34.3679H51.9286C51.5714 34.3679 51.2143 34.0818 51.1429 33.7242C50.2857 29.7903 48.0714 28.5028 42.2143 28.5028C35.6429 28.5028 34.8571 30.7916 34.8571 32.5082C34.8571 34.5825 35.7857 35.2262 44.6429 36.3706C53.4286 37.515 57.5714 39.1601 57.5714 45.3113C57.5 51.6055 52.3571 55.1818 43.2857 55.1818Z" fill="#B6B6B6"/>
</svg>
