<svg width="88" height="78" viewBox="0 0 88 78" fill="none" xmlns="http://www.w3.org/2000/svg">
<g clip-path="url(#clip0)">
<path d="M72.354 25.2813C71.4173 24.9611 70.473 24.6647 69.5211 24.392C69.6789 23.7532 69.8248 23.1115 69.9588 22.4671C72.1031 12.097 70.7011 3.74281 65.9132 0.992733C61.3226 -1.64494 53.8147 1.10525 46.232 7.67893C45.4848 8.32819 44.7544 8.99592 44.0409 9.68212C43.5632 9.22596 43.0772 8.77873 42.5828 8.34041C34.6359 1.31097 26.6704 -1.65093 21.8874 1.10727C17.3012 3.75219 15.9428 11.6062 17.8733 21.434C18.0654 22.4072 18.2822 23.3751 18.5238 24.3377C17.3967 24.6566 16.3082 24.9965 15.2667 25.3581C5.9501 28.5939 0 33.6657 0 38.9261C0 44.3595 6.38708 49.8092 16.0916 53.1131C16.8785 53.3798 17.6716 53.6268 18.4711 53.8542C18.2115 54.8909 17.9811 55.9342 17.7798 56.9841C15.9392 66.6411 17.3767 74.3089 21.9509 76.9376C26.6754 79.6515 34.6047 76.8619 42.3261 70.138C42.9364 69.6065 43.5485 69.0444 44.1624 68.4518C44.935 69.1945 45.7279 69.9152 46.5412 70.6141C54.0203 77.0256 61.4067 79.6146 65.977 76.979C70.6972 74.2569 72.2309 66.0195 70.2393 55.9974C70.0874 55.2319 69.9115 54.4507 69.7116 53.6539C70.2685 53.4902 70.814 53.3205 71.3481 53.1449C81.4365 49.8154 88 44.432 88 38.9261C88 33.6467 81.8583 28.5408 72.354 25.2813ZM48.7 10.5044C55.1969 4.87145 61.2689 2.64761 64.0356 4.23719C66.9822 5.93037 68.1284 12.7578 66.2769 21.7114C66.1555 22.2947 66.0236 22.8757 65.8812 23.4543C62.0044 22.579 58.0738 21.9603 54.1149 21.6024C51.8469 18.3564 49.3617 15.2664 46.6763 12.3535C47.3354 11.7205 48.0099 11.1041 48.7 10.5044ZM25.9834 43.4198C26.7792 44.9512 27.6108 46.4633 28.4783 47.9562C29.3632 49.4786 30.2841 50.9793 31.2411 52.4584C28.5172 52.1639 25.8103 51.7304 23.131 51.1594C23.908 48.6599 24.8652 46.062 25.9834 43.4198ZM25.9791 34.6116C24.8844 32.0249 23.9477 29.4817 23.1828 27.0257C25.6937 26.4658 28.371 26.0084 31.1608 25.6611C30.227 27.1121 29.3277 28.5844 28.4631 30.078C27.5998 31.5696 26.7718 33.0809 25.9791 34.6116ZM27.9774 39.0161C29.1357 36.6143 30.3834 34.2585 31.7205 31.9485V31.9493C33.0563 29.6405 34.4786 27.3847 35.9874 25.182C38.6044 24.9849 41.2879 24.8816 44.0004 24.8816C46.7251 24.8816 49.4119 24.9856 52.0283 25.1843C53.5208 27.382 54.9341 29.6302 56.2683 31.9287C57.6091 34.2318 58.8736 36.5766 60.062 38.9629C58.8865 41.3723 57.6261 43.7378 56.2807 46.0592H56.2803C54.9473 48.3662 53.5401 50.6282 52.0586 52.8451C49.4477 53.031 46.7495 53.1268 44 53.1268C41.2617 53.1268 38.5978 53.0419 36.0325 52.8762C34.5134 50.6656 33.0799 48.4001 31.7318 46.0798C30.391 43.7734 29.1395 41.4189 27.9774 39.0161H27.9774ZM59.537 47.9302C60.4221 46.4009 61.2728 44.8525 62.089 43.2851C63.2074 45.8031 64.1938 48.3773 65.0442 50.9972C62.3341 51.6039 59.5941 52.0692 56.8353 52.3912C57.7655 50.9222 58.666 49.4352 59.537 47.9302H59.537ZM62.0533 34.6144C61.2401 33.077 60.3963 31.5563 59.5219 30.0524C58.6616 28.572 57.7696 27.1106 56.8459 25.6681C59.6539 26.0212 62.344 26.4907 64.8699 27.0653C64.059 29.6272 63.1189 32.1468 62.0533 34.6144H62.0533ZM44.0421 15.0318C45.8725 17.0196 47.6009 19.0982 49.2207 21.2598C45.7557 21.0967 42.2888 21.0959 38.8199 21.2575C40.5297 19.0114 42.2809 16.9248 44.0421 15.0318ZM23.7709 4.34853C26.7152 2.65069 33.2249 5.07171 40.0864 11.1409C40.5249 11.5289 40.9654 11.9351 41.4066 12.3553C38.7057 15.2676 36.2015 18.3551 33.9104 21.5974C29.9608 21.9503 26.0383 22.5576 22.1675 23.4155C21.943 22.5203 21.7414 21.6199 21.5627 20.7143V20.7147C19.9086 12.2941 21.0069 5.94253 23.7709 4.34853ZM19.4798 50.2468C18.7503 50.0388 18.0262 49.813 17.3075 49.5694C13.5808 48.4012 10.1016 46.56 7.04383 44.1375C6.16776 43.5388 5.42427 42.7673 4.85931 41.871C4.29435 40.9746 3.91992 39.9723 3.75917 38.9261C3.75917 35.7341 8.53661 31.6621 16.5045 28.8946C17.5046 28.5488 18.5142 28.2323 19.5333 27.9452C20.7164 31.726 22.1492 35.4248 23.8224 39.0173C22.1282 42.6611 20.6776 46.4124 19.4798 50.2468ZM39.8523 67.318C36.9748 69.9507 33.6356 72.0333 30.0014 73.4618H30.001C29.0428 73.9187 28.0007 74.1749 26.9392 74.2147C25.8777 74.2545 24.8192 74.0769 23.8293 73.6931C21.0532 72.0984 19.8997 65.941 21.4735 57.6827C21.6606 56.7068 21.8749 55.7365 22.1162 54.772C26.0258 55.6087 29.9879 56.1801 33.9752 56.4823C36.2861 59.743 38.8095 62.8489 41.5291 65.78C40.9827 66.3063 40.4238 66.8189 39.8523 67.318ZM44.146 63.085C42.3643 61.1696 40.5872 59.0511 38.8514 56.7725C40.5362 56.8385 42.2524 56.8716 44 56.8718C45.7938 56.8718 47.5645 56.8326 49.3122 56.7542C47.6998 58.951 45.9755 61.064 44.146 63.085V63.085ZM66.9744 68.2956C66.8932 69.3508 66.5957 70.3782 66.1001 71.3142C65.6046 72.2503 64.9216 73.0752 64.0934 73.7379C61.32 75.3372 55.389 73.2584 48.9934 67.7753C48.2601 67.1467 47.5224 66.4768 46.7805 65.7655C49.4474 62.8242 51.9118 59.7068 54.1568 56.4345C58.1671 56.0975 62.1493 55.486 66.0753 54.6044C66.2545 55.3261 66.4133 56.033 66.5516 56.7251C67.4041 60.5234 67.5474 64.4457 66.9744 68.2957V68.2956ZM70.166 49.5902H70.1657C69.6847 49.7489 69.1908 49.9022 68.6877 50.0508C67.4571 46.2522 65.9683 42.5416 64.2315 38.9446C65.9026 35.3957 67.3334 31.7395 68.5144 28.0002C69.4144 28.2602 70.2883 28.5339 71.1303 28.8228C79.2738 31.6151 84.241 35.7445 84.241 38.926C84.241 42.3152 78.8762 46.715 70.166 49.5903V49.5902Z" fill="#B6B6B6"/>
<path d="M44 31.0973C45.5543 31.0973 47.0736 31.5564 48.3659 32.4166C49.6582 33.2768 50.6655 34.4994 51.2603 35.9299C51.8551 37.3604 52.0107 38.9345 51.7075 40.4532C51.4043 41.9718 50.6558 43.3667 49.5568 44.4616C48.4578 45.5565 47.0576 46.3021 45.5332 46.6041C44.0089 46.9062 42.4288 46.7511 40.9929 46.1586C39.557 45.566 38.3297 44.5626 37.4662 43.2751C36.6028 41.9877 36.1419 40.4741 36.142 38.9257C36.142 36.8495 36.9699 34.8583 38.4435 33.3902C39.9172 31.9221 41.9159 31.0973 44 31.0973Z" fill="#B6B6B6"/>
</g>
<defs>
<clipPath id="clip0">
<rect width="88" height="78" fill="white"/>
</clipPath>
</defs>
</svg>
