<svg width="70" height="52" viewBox="0 0 70 52" fill="none" xmlns="http://www.w3.org/2000/svg">
<g clip-path="url(#clip0)">
<path d="M60.2372 29.8879C57.7965 29.9006 55.6753 30.4831 53.8991 31.3443C53.2474 30.0652 52.5957 28.9254 52.4807 28.0895C52.353 27.1144 52.1996 26.5192 52.353 25.354C52.5063 24.1889 53.1963 22.5299 53.1835 22.4032C53.1708 22.2766 53.0302 21.6814 51.6246 21.6687C50.219 21.656 49.005 21.9347 48.8644 22.3019C48.7239 22.6692 48.4555 23.505 48.2766 24.3662C48.0339 25.6327 45.4654 30.1538 43.9959 32.5221C43.5231 31.5976 43.1142 30.7871 43.0247 30.1412C42.8969 29.166 42.7436 28.5708 42.8969 27.4057C43.0503 26.2405 43.7403 24.5815 43.7275 24.4549C43.7148 24.3282 43.5742 23.733 42.1686 23.7203C40.763 23.7077 39.549 23.9863 39.4084 24.3535C39.2679 24.7208 39.1145 25.582 38.8206 26.4178C38.5267 27.2537 35.1149 34.8017 34.2204 36.752C33.7604 37.7525 33.3643 38.5503 33.0831 39.0949C33.0831 39.0949 33.0704 39.1329 33.032 39.1962C32.7892 39.6648 32.6487 39.9181 32.6487 39.9181C32.6487 39.9181 32.6487 39.9181 32.6487 39.9307C32.457 40.2727 32.2525 40.5893 32.1503 40.5893C32.0737 40.5893 31.9331 39.6775 32.1759 38.4364C32.687 35.8148 33.901 31.7369 33.8882 31.5976C33.8882 31.5216 34.1182 30.8124 33.0959 30.4451C32.0992 30.0779 31.7414 30.6857 31.652 30.6857C31.5625 30.6857 31.4986 30.901 31.4986 30.901C31.4986 30.901 32.6103 26.3165 29.3774 26.3165C27.3584 26.3165 24.5727 28.5075 23.1927 30.4831C22.3237 30.9517 20.4709 31.9522 18.4902 33.0287C17.7363 33.4466 16.9568 33.8645 16.2285 34.2571C16.1773 34.2064 16.1262 34.1431 16.0751 34.0925C12.1649 29.9512 4.93236 27.0257 5.23904 21.4661C5.35405 19.4398 6.05686 14.1207 19.1291 7.66188C29.8885 2.40616 38.4501 3.86256 39.9324 7.09198C42.0536 11.7018 35.3449 20.263 24.2277 21.5041C19.9853 21.9726 17.7619 20.3516 17.1996 19.7437C16.6118 19.1105 16.5224 19.0725 16.3051 19.1991C15.9473 19.3891 16.1773 19.959 16.3051 20.2883C16.6374 21.1495 18.0046 22.6692 20.3175 23.4164C22.3621 24.0749 27.3329 24.4422 33.3515 22.1373C40.0857 19.5537 45.3504 12.373 43.8042 6.35745C42.258 0.25321 32.0353 -1.76043 22.3621 1.64629C16.6118 3.6726 10.376 6.86402 5.89074 11.0179C0.562151 15.9571 -0.281223 20.2503 0.0637939 22.0486C1.3033 28.4315 10.1843 32.5854 13.7367 35.6629C13.5578 35.7642 13.3917 35.8528 13.2511 35.9288C11.4749 36.8026 4.70235 40.3107 3.0156 44.0214C1.09884 48.2259 3.32228 51.2401 4.7918 51.6453C9.35368 52.8991 14.0433 50.6448 16.5607 46.9215C19.078 43.1982 18.7714 38.3604 17.6085 36.1441C17.5957 36.1188 17.583 36.0934 17.5574 36.0681C18.0174 35.8022 18.4902 35.5235 18.9502 35.2576C19.8575 34.7257 20.752 34.2318 21.5187 33.8265C21.0842 35.0043 20.7648 36.41 20.6114 38.4364C20.4198 40.8173 21.4037 43.9074 22.6943 45.1231C23.2693 45.6551 23.9466 45.6677 24.3811 45.6677C25.8889 45.6677 26.5662 44.4266 27.3201 42.9575C28.2401 41.1592 29.0707 39.0696 29.0707 39.0696C29.0707 39.0696 28.0357 44.7179 30.8469 44.7179C31.8692 44.7179 32.9042 43.4008 33.3643 42.7296C33.3643 42.7422 33.3643 42.7422 33.3643 42.7422C33.3643 42.7422 33.3898 42.7043 33.4409 42.6156C33.5432 42.451 33.6071 42.3496 33.6071 42.3496C33.6071 42.3496 33.6071 42.337 33.6071 42.3243C34.016 41.6151 34.936 40.0067 36.3033 37.3345C38.0667 33.8898 39.7662 29.5839 39.7662 29.5839C39.7662 29.5839 39.9196 30.6351 40.4435 32.3828C40.7502 33.4086 41.3891 34.5357 41.9002 35.6249C41.4913 36.1948 41.2358 36.5114 41.2358 36.5114C41.2358 36.5114 41.2358 36.5114 41.2485 36.524C40.9163 36.9546 40.5585 37.4232 40.1624 37.8791C38.7695 39.5255 37.1083 41.4125 36.8783 41.9571C36.61 42.6029 36.6739 43.0715 37.185 43.4515C37.5556 43.7301 38.2201 43.7681 38.8973 43.7301C40.1496 43.6414 41.0313 43.3375 41.4658 43.1475C42.143 42.9069 42.9353 42.5396 43.6764 41.995C45.0437 40.9946 45.8743 39.5635 45.7976 37.6765C45.7593 36.638 45.4143 35.5995 44.9926 34.6244C45.1204 34.4471 45.2354 34.2698 45.3632 34.0925C47.5227 30.9644 49.1967 27.5323 49.1967 27.5323C49.1967 27.5323 49.35 28.5835 49.8739 30.3311C50.1295 31.2177 50.6534 32.1801 51.1134 33.1173C49.0817 34.751 47.8294 36.6507 47.3822 37.8918C46.5771 40.1967 47.2033 41.2352 48.3917 41.4758C48.9283 41.5898 49.695 41.3365 50.2573 41.0959C50.9729 40.8679 51.8163 40.4753 52.6213 39.8928C53.9886 38.8923 55.3048 37.4992 55.2281 35.6122C55.1898 34.751 54.9597 33.9025 54.6403 33.0793C56.3654 32.3701 58.5888 31.9775 61.4256 32.3068C67.5081 33.016 68.7093 36.7773 68.4793 38.3604C68.2493 39.9434 66.9714 40.8046 66.5497 41.0705C66.1281 41.3365 65.9875 41.4252 66.0258 41.6151C66.0769 41.8937 66.2814 41.8811 66.6392 41.8304C67.1376 41.7418 69.8338 40.5513 69.9488 37.6385C70.1405 33.9152 66.5625 29.8499 60.2372 29.8879ZM13.315 45.5664C11.296 47.7447 8.48475 48.5679 7.2708 47.8713C5.96741 47.1241 6.47854 43.9074 8.95755 41.6025C10.4654 40.1967 12.4077 38.8923 13.6983 38.0944C13.9922 37.9171 14.4267 37.6638 14.9506 37.3472C15.0401 37.2966 15.0912 37.2712 15.0912 37.2712C15.1934 37.2079 15.2956 37.1446 15.3979 37.0813C16.3051 40.374 15.4362 43.2742 13.315 45.5664ZM28.0101 35.6629C27.3073 37.3599 25.8378 41.7038 24.9433 41.4631C24.1766 41.2605 23.7038 37.9678 24.79 34.713C25.3394 33.0793 26.5023 31.129 27.1795 30.3691C28.2785 29.1534 29.4924 28.7481 29.7863 29.242C30.1569 29.8879 28.4446 34.599 28.0101 35.6629ZM40.1368 41.4125C39.8429 41.5645 39.5618 41.6658 39.434 41.5898C39.3446 41.5391 39.5618 41.3365 39.5618 41.3365C39.5618 41.3365 41.0824 39.7155 41.683 38.9809C42.028 38.5503 42.4369 38.0438 42.8714 37.4739C42.8714 37.5245 42.8714 37.5878 42.8714 37.6385C42.8714 39.5761 40.9802 40.8806 40.1368 41.4125ZM49.4906 39.2975C49.2734 39.1456 49.3117 38.639 50.0401 37.0559C50.3212 36.4354 50.9857 35.3969 52.1229 34.3964C52.2507 34.8017 52.3402 35.1943 52.3274 35.5615C52.3146 38.0058 50.5512 38.9176 49.4906 39.2975Z" fill="#B6B6B6"/>
</g>
<defs>
<clipPath id="clip0">
<rect width="70" height="52" fill="white"/>
</clipPath>
</defs>
</svg>
