<svg width="72" height="72" viewBox="0 0 72 72" fill="none" xmlns="http://www.w3.org/2000/svg">
<path d="M27.1257 2.07625C36.2008 -0.251098 46.2308 1.10509 54.2343 6.04468C64.3143 12.0727 70.895 23.4754 71.0623 35.2131C71.4308 47.0678 65.252 58.8224 55.3227 65.2689C44.2716 72.7032 28.9842 72.9881 17.6985 65.922C6.19538 59.0567 -0.519179 45.2093 1.20573 31.9143C2.5951 17.8659 13.4457 5.47543 27.1257 2.07653V2.07625Z" fill="#B6B6B6"/>
<path d="M25.7358 7.81961C42.8819 0.954302 63.9126 13.6297 65.6873 32.015C68.4503 48.5581 54.72 65.3693 37.9589 65.855C22.0185 67.4457 6.61386 53.9328 6.16189 37.9257C4.97305 24.9657 13.5126 12.1061 25.7358 7.81961Z" fill="#F8F8F8"/>
<path d="M27.4604 34.2253C35.1461 27.9461 42.6642 21.4492 50.5173 15.3542C46.3981 21.6838 42.1619 27.9292 38.0427 34.2585C34.5097 34.2753 30.9769 34.2753 27.4604 34.225V34.2253ZM33.9573 37.7246C37.5069 37.7246 41.04 37.7246 44.5731 37.7749C36.8373 44.0204 29.3527 50.5673 21.4827 56.6457C25.6019 50.3162 29.8381 44.0541 33.9573 37.7246Z" fill="#B6B6B6"/>
</svg>
