<svg width="500" height="500" viewBox="0 0 500 500" fill="none" xmlns="http://www.w3.org/2000/svg">
<g clip-path="url(#clip0)">
<path fill-rule="evenodd" clip-rule="evenodd" d="M249.985 35.0225C306.06 35.0225 357.118 56.511 395.39 91.6931C376.632 91.1897 357.911 102.341 357.137 127.875C355.559 179.496 418.863 190.492 384.753 294.324L356.537 380.21L279.691 153.845C278.501 150.341 279.885 148.347 284.192 148.347H305.918C307.047 148.347 307.97 147.383 307.97 146.202V133.334C307.97 132.154 307.045 131.141 305.918 131.19C264.775 132.989 223.874 133.002 183.221 131.19C182.088 131.142 181.169 132.158 181.169 133.339V146.207C181.169 147.386 182.092 148.352 183.221 148.352H205.065C209.925 148.352 211.285 149.971 212.431 153.103L244.005 239.454L196.508 382.875L118.433 152.91C117.465 150.025 118.636 148.35 121.414 148.35H146.305C147.434 148.35 148.357 147.386 148.357 146.206V133.338C148.357 132.158 147.431 131.134 146.305 131.193C120.19 132.581 93.9748 132.86 69.5554 133.11C107.876 74.0808 174.365 35.0182 249.972 35.0182L249.971 35.0176L249.985 35.0225ZM439.045 147.624C455.563 178.057 464.942 212.926 464.942 249.975C464.942 331.288 419.763 402.059 353.154 438.59L420.194 248.707C430.58 219.32 440.221 179.605 439.04 147.624H439.04H439.045ZM321.952 452.567C299.447 460.572 275.229 464.937 249.985 464.937C228.235 464.937 207.25 461.695 187.465 455.694L253.687 265.917L321.951 452.577V452.577L321.952 452.567ZM158.001 444.301C85.3066 409.825 35.0226 335.765 35.0226 249.985C35.0226 218.186 41.94 187.999 54.338 160.841L158.005 444.305L158.006 444.304L158.001 444.301ZM249.978 14.8504C379.809 14.8504 485.103 120.144 485.103 249.975C485.103 379.806 379.809 485.1 249.978 485.1C120.147 485.1 14.8534 379.806 14.8534 249.975C14.8534 120.144 120.147 14.8504 249.978 14.8504V14.8504ZM249.978 -0.0114746C388.017 -0.0114746 499.971 111.942 499.971 249.981C499.971 388.02 388.017 499.973 249.978 499.973C111.939 499.973 -0.0142822 388.02 -0.0142822 249.981C-0.0142822 111.942 111.939 -0.0114746 249.978 -0.0114746V-0.0114746Z" fill="#B6B6B6"/>
</g>
<defs>
<clipPath id="clip0">
<rect width="500" height="500" fill="white"/>
</clipPath>
</defs>
</svg>
